<svg width="281" height="80" viewBox="0 0 281 80" fill="none" xmlns="http://www.w3.org/2000/svg">
<path fill-rule="evenodd" clip-rule="evenodd" d="M39.4646 12.5473C39.3789 12.6329 39.3789 12.7718 39.4646 12.8574L44.5057 17.8986C44.5914 17.9842 44.7302 17.9842 44.8158 17.8986L49.861 12.8534C49.9466 12.7678 49.9466 12.6289 49.861 12.5433L44.8198 7.50215C44.7342 7.41652 44.5954 7.41652 44.5097 7.50215L39.4646 12.5473ZM44.5319 10.0069L41.9675 12.5714C41.8819 12.657 41.8819 12.7958 41.9675 12.8815L44.5281 15.442C44.6137 15.5276 44.7525 15.5276 44.8382 15.442L47.4026 12.8776C47.4882 12.7919 47.4882 12.6531 47.4026 12.5675L44.842 10.0069C44.7564 9.92129 44.6176 9.92129 44.5319 10.0069Z" fill="#E100FF"/>
<path fill-rule="evenodd" clip-rule="evenodd" d="M27.9987 72.5621C40.1084 72.5621 49.9253 62.7452 49.9253 50.6354C49.9253 38.5257 40.1084 28.7088 27.9987 28.7088C15.8889 28.7088 6.07202 38.5257 6.07202 50.6354C6.07202 62.7452 15.8889 72.5621 27.9987 72.5621ZM39.4005 36.2547V50.6354V61.8177C39.4005 61.9388 39.3024 62.0369 39.1813 62.0369L13.6179 62.0373C13.4226 62.0373 13.3247 61.8011 13.4629 61.663L39.0262 36.0996C39.1643 35.9615 39.4005 36.0593 39.4005 36.2547Z" fill="#E100FF"/>
<path fill-rule="evenodd" clip-rule="evenodd" d="M49.9253 12.7024H47.4659C47.4717 12.765 47.4506 12.8296 47.4026 12.8776L44.8382 15.442C44.7525 15.5276 44.6137 15.5276 44.5281 15.442L41.9675 12.8815C41.9186 12.8325 41.8976 12.7662 41.9046 12.7024H39.4005V50.6354L49.9253 50.6354V12.7024Z" fill="#E100FF"/>
<path d="M70.0913 27.6875V61.5H59.5288V27.6875H70.0913ZM58.9038 18.9688C58.9038 17.4688 59.4455 16.2396 60.5288 15.2812C61.6121 14.3229 63.0184 13.8438 64.7476 13.8438C66.4767 13.8438 67.883 14.3229 68.9663 15.2812C70.0496 16.2396 70.5913 17.4688 70.5913 18.9688C70.5913 20.4688 70.0496 21.6979 68.9663 22.6562C67.883 23.6146 66.4767 24.0938 64.7476 24.0938C63.0184 24.0938 61.6121 23.6146 60.5288 22.6562C59.4455 21.6979 58.9038 20.4688 58.9038 18.9688ZM94.3101 52C94.3101 51.4167 94.1121 50.9167 93.7163 50.5C93.3413 50.0625 92.6746 49.6667 91.7163 49.3125C90.758 48.9375 89.4142 48.5625 87.6851 48.1875C86.0392 47.8333 84.4871 47.3646 83.0288 46.7812C81.5913 46.1979 80.3309 45.4896 79.2476 44.6562C78.1642 43.8229 77.3101 42.8333 76.6851 41.6875C76.0809 40.5417 75.7788 39.2292 75.7788 37.75C75.7788 36.3125 76.0809 34.9583 76.6851 33.6875C77.3101 32.3958 78.2163 31.2604 79.4038 30.2812C80.6121 29.2812 82.0809 28.5 83.8101 27.9375C85.5392 27.3542 87.508 27.0625 89.7163 27.0625C92.758 27.0625 95.383 27.5312 97.5913 28.4688C99.7996 29.3854 101.498 30.6771 102.685 32.3438C103.893 33.9896 104.498 35.8958 104.498 38.0625H93.9663C93.9663 37.2083 93.8205 36.4792 93.5288 35.875C93.258 35.2708 92.8101 34.8125 92.1851 34.5C91.5601 34.1667 90.7267 34 89.6851 34C88.9559 34 88.2892 34.1354 87.6851 34.4062C87.1017 34.6771 86.633 35.0521 86.2788 35.5312C85.9246 36.0104 85.7476 36.5729 85.7476 37.2188C85.7476 37.6771 85.8517 38.0938 86.0601 38.4688C86.2892 38.8229 86.633 39.1562 87.0913 39.4688C87.5496 39.7604 88.133 40.0312 88.8413 40.2812C89.5496 40.5104 90.4038 40.7188 91.4038 40.9062C93.6746 41.3229 95.7996 41.9167 97.7788 42.6875C99.758 43.4583 101.362 44.5521 102.591 45.9688C103.841 47.3854 104.466 49.2917 104.466 51.6875C104.466 53.1875 104.123 54.5729 103.435 55.8438C102.748 57.0938 101.758 58.1979 100.466 59.1562C99.1746 60.0938 97.6226 60.8229 95.8101 61.3438C93.9976 61.8646 91.9559 62.125 89.6851 62.125C86.4559 62.125 83.7267 61.5521 81.4976 60.4062C79.2684 59.2396 77.5809 57.7812 76.4351 56.0312C75.3101 54.2604 74.7476 52.4688 74.7476 50.6562H84.5601C84.6017 51.6979 84.8517 52.5521 85.3101 53.2188C85.7892 53.8854 86.4246 54.375 87.2163 54.6875C88.008 55 88.9246 55.1562 89.9663 55.1562C90.9246 55.1562 91.7163 55.0208 92.3413 54.75C92.9871 54.4792 93.4767 54.1146 93.8101 53.6562C94.1434 53.1771 94.3101 52.625 94.3101 52Z" fill="#E100FF"/>
<path d="M133.873 54.9375V13.5H137.623V61.5H134.123L133.873 54.9375ZM110.404 44.9375V44.2812C110.404 41.6562 110.706 39.2917 111.31 37.1875C111.914 35.0625 112.779 33.25 113.904 31.75C115.05 30.2292 116.425 29.0729 118.029 28.2812C119.633 27.4688 121.445 27.0625 123.466 27.0625C125.445 27.0625 127.195 27.3854 128.716 28.0312C130.237 28.6771 131.539 29.6042 132.623 30.8125C133.727 32.0208 134.612 33.4583 135.279 35.125C135.966 36.7917 136.466 38.6458 136.779 40.6875V49.0312C136.529 50.9479 136.07 52.7083 135.404 54.3125C134.737 55.8958 133.852 57.2812 132.748 58.4688C131.643 59.6354 130.31 60.5417 128.748 61.1875C127.206 61.8125 125.425 62.125 123.404 62.125C121.404 62.125 119.602 61.7083 117.998 60.875C116.393 60.0417 115.029 58.8646 113.904 57.3438C112.779 55.8021 111.914 53.9792 111.31 51.875C110.706 49.7708 110.404 47.4583 110.404 44.9375ZM114.154 44.2812V44.9375C114.154 46.9167 114.352 48.75 114.748 50.4375C115.143 52.125 115.748 53.5938 116.56 54.8438C117.373 56.0938 118.404 57.0729 119.654 57.7812C120.904 58.4896 122.383 58.8438 124.091 58.8438C126.237 58.8438 128.039 58.4375 129.498 57.625C130.956 56.7917 132.123 55.6979 132.998 54.3438C133.873 52.9688 134.508 51.4688 134.904 49.8438V40.125C134.654 39.0208 134.289 37.8958 133.81 36.75C133.331 35.6042 132.675 34.5521 131.841 33.5938C131.029 32.6146 129.987 31.8333 128.716 31.25C127.466 30.6458 125.945 30.3438 124.154 30.3438C122.425 30.3438 120.935 30.6979 119.685 31.4062C118.435 32.1146 117.393 33.1042 116.56 34.375C115.748 35.625 115.143 37.0938 114.748 38.7812C114.352 40.4688 114.154 42.3021 114.154 44.2812ZM168.029 55.4375V38C168.029 36.3958 167.695 35.0104 167.029 33.8438C166.362 32.6771 165.383 31.7812 164.091 31.1562C162.8 30.5312 161.206 30.2188 159.31 30.2188C157.56 30.2188 155.998 30.5312 154.623 31.1562C153.268 31.7604 152.195 32.5833 151.404 33.625C150.633 34.6458 150.248 35.7812 150.248 37.0312L146.498 37C146.498 35.7292 146.81 34.5 147.435 33.3125C148.06 32.125 148.945 31.0625 150.091 30.125C151.237 29.1875 152.602 28.4479 154.185 27.9062C155.789 27.3438 157.55 27.0625 159.466 27.0625C161.883 27.0625 164.008 27.4688 165.841 28.2812C167.695 29.0938 169.143 30.3125 170.185 31.9375C171.227 33.5625 171.748 35.6042 171.748 38.0625V54.4062C171.748 55.5729 171.831 56.7812 171.998 58.0312C172.185 59.2812 172.445 60.3125 172.779 61.125V61.5H168.81C168.56 60.75 168.362 59.8125 168.216 58.6875C168.091 57.5417 168.029 56.4583 168.029 55.4375ZM168.904 41.8125L168.966 44.6875H161.623C159.706 44.6875 157.987 44.8646 156.466 45.2188C154.966 45.5521 153.695 46.0521 152.654 46.7188C151.612 47.3646 150.81 48.1458 150.248 49.0625C149.706 49.9792 149.435 51.0208 149.435 52.1875C149.435 53.3958 149.737 54.5 150.341 55.5C150.966 56.5 151.841 57.3021 152.966 57.9062C154.112 58.4896 155.466 58.7812 157.029 58.7812C159.112 58.7812 160.945 58.3958 162.529 57.625C164.133 56.8542 165.456 55.8438 166.498 54.5938C167.539 53.3438 168.237 51.9792 168.591 50.5L170.216 52.6562C169.945 53.6979 169.445 54.7708 168.716 55.875C168.008 56.9583 167.081 57.9792 165.935 58.9375C164.789 59.875 163.435 60.6458 161.873 61.25C160.331 61.8333 158.581 62.125 156.623 62.125C154.414 62.125 152.487 61.7083 150.841 60.875C149.216 60.0417 147.945 58.9062 147.029 57.4688C146.133 56.0104 145.685 54.3646 145.685 52.5312C145.685 50.8646 146.039 49.375 146.748 48.0625C147.456 46.7292 148.477 45.6042 149.81 44.6875C151.164 43.75 152.789 43.0417 154.685 42.5625C156.602 42.0625 158.748 41.8125 161.123 41.8125H168.904ZM185.498 34.9062V61.5H181.779V27.6875H185.341L185.498 34.9062ZM184.654 42.5L182.998 41.5625C183.123 39.5625 183.529 37.6875 184.216 35.9375C184.904 34.1875 185.831 32.6458 186.998 31.3125C188.185 29.9792 189.57 28.9375 191.154 28.1875C192.758 27.4375 194.529 27.0625 196.466 27.0625C198.154 27.0625 199.664 27.2917 200.998 27.75C202.331 28.2083 203.466 28.9375 204.404 29.9375C205.341 30.9375 206.05 32.2188 206.529 33.7812C207.029 35.3438 207.279 37.25 207.279 39.5V61.5H203.529V39.4688C203.529 37.1354 203.206 35.3125 202.56 34C201.914 32.6667 200.998 31.7188 199.81 31.1562C198.623 30.5938 197.216 30.3125 195.591 30.3125C193.8 30.3125 192.227 30.7083 190.873 31.5C189.539 32.2708 188.414 33.2812 187.498 34.5312C186.602 35.7604 185.914 37.0833 185.435 38.5C184.956 39.8958 184.695 41.2292 184.654 42.5ZM229.748 27.6875V30.75H212.81V27.6875H229.748ZM219.029 19H222.748V53.2812C222.748 54.8438 222.956 56.0208 223.373 56.8125C223.789 57.6042 224.331 58.1354 224.998 58.4062C225.664 58.6771 226.383 58.8125 227.154 58.8125C227.716 58.8125 228.258 58.7812 228.779 58.7188C229.3 58.6354 229.768 58.5521 230.185 58.4688L230.341 61.625C229.883 61.7708 229.289 61.8854 228.56 61.9688C227.831 62.0729 227.102 62.125 226.373 62.125C224.935 62.125 223.664 61.8646 222.56 61.3438C221.456 60.8021 220.591 59.8854 219.966 58.5938C219.341 57.2812 219.029 55.5 219.029 53.25V19ZM241.748 27.6875V61.5H238.029V27.6875H241.748ZM237.373 17.9375C237.373 17.2083 237.591 16.6042 238.029 16.125C238.487 15.625 239.123 15.375 239.935 15.375C240.706 15.375 241.32 15.625 241.779 16.125C242.258 16.6042 242.498 17.2083 242.498 17.9375C242.498 18.6042 242.258 19.1875 241.779 19.6875C241.32 20.1667 240.706 20.4062 239.935 20.4062C239.123 20.4062 238.487 20.1667 238.029 19.6875C237.591 19.1875 237.373 18.6042 237.373 17.9375ZM264.435 58.9062C266.018 58.9062 267.498 58.6146 268.873 58.0312C270.268 57.4271 271.414 56.5417 272.31 55.375C273.227 54.1875 273.748 52.7396 273.873 51.0312H277.435C277.331 53.1771 276.675 55.0938 275.466 56.7812C274.279 58.4479 272.716 59.7604 270.779 60.7188C268.862 61.6562 266.748 62.125 264.435 62.125C262.081 62.125 259.998 61.6979 258.185 60.8438C256.393 59.9896 254.893 58.8021 253.685 57.2812C252.477 55.7396 251.56 53.9479 250.935 51.9062C250.331 49.8438 250.029 47.625 250.029 45.25V43.9375C250.029 41.5625 250.331 39.3542 250.935 37.3125C251.56 35.25 252.477 33.4583 253.685 31.9375C254.893 30.3958 256.393 29.1979 258.185 28.3438C259.977 27.4896 262.05 27.0625 264.404 27.0625C266.82 27.0625 268.987 27.5521 270.904 28.5312C272.841 29.5104 274.383 30.8958 275.529 32.6875C276.695 34.4792 277.331 36.6042 277.435 39.0625H273.873C273.768 37.25 273.289 35.6875 272.435 34.375C271.581 33.0625 270.456 32.0521 269.06 31.3438C267.664 30.6354 266.112 30.2812 264.404 30.2812C262.487 30.2812 260.852 30.6562 259.498 31.4062C258.143 32.1354 257.039 33.1458 256.185 34.4375C255.352 35.7083 254.737 37.1667 254.341 38.8125C253.945 40.4375 253.748 42.1458 253.748 43.9375V45.25C253.748 47.0625 253.935 48.7917 254.31 50.4375C254.706 52.0625 255.32 53.5104 256.154 54.7812C257.008 56.0521 258.112 57.0625 259.466 57.8125C260.841 58.5417 262.498 58.9062 264.435 58.9062Z" fill="white"/>
</svg>
