<svg width="281" height="80" viewBox="0 0 281 80" fill="none" xmlns="http://www.w3.org/2000/svg">
<path fill-rule="evenodd" clip-rule="evenodd" d="M39.4647 12.5473C39.3791 12.6329 39.3791 12.7718 39.4647 12.8574L44.5059 17.8986C44.5915 17.9842 44.7303 17.9842 44.816 17.8986L49.8611 12.8534C49.9467 12.7678 49.9467 12.6289 49.8611 12.5433L44.8199 7.50215C44.7343 7.41652 44.5955 7.41652 44.5099 7.50215L39.4647 12.5473ZM44.5321 10.0069L41.9676 12.5714C41.882 12.657 41.882 12.7958 41.9676 12.8815L44.5282 15.442C44.6138 15.5276 44.7527 15.5276 44.8383 15.442L47.4027 12.8776C47.4883 12.7919 47.4883 12.6531 47.4027 12.5675L44.8422 10.0069C44.7565 9.92129 44.6177 9.92129 44.5321 10.0069Z" fill="#E100FF"/>
<path fill-rule="evenodd" clip-rule="evenodd" d="M27.9988 72.5621C40.1085 72.5621 49.9254 62.7452 49.9254 50.6354C49.9254 38.5257 40.1085 28.7088 27.9988 28.7088C15.889 28.7088 6.07214 38.5257 6.07214 50.6354C6.07214 62.7452 15.889 72.5621 27.9988 72.5621ZM39.4006 36.2547V50.6354V61.8177C39.4006 61.9388 39.3025 62.0369 39.1814 62.0369L13.618 62.0373C13.4227 62.0373 13.3249 61.8011 13.463 61.663L39.0263 36.0996C39.1645 35.9615 39.4006 36.0593 39.4006 36.2547Z" fill="#E100FF"/>
<path fill-rule="evenodd" clip-rule="evenodd" d="M49.9254 12.7024H47.466C47.4718 12.765 47.4507 12.8296 47.4027 12.8776L44.8383 15.442C44.7527 15.5276 44.6138 15.5276 44.5282 15.442L41.9676 12.8815C41.9187 12.8325 41.8977 12.7662 41.9047 12.7024H39.4006V50.6354L49.9254 50.6354V12.7024Z" fill="#E100FF"/>
<path d="M70.0912 27.6875V61.5H59.5287V27.6875H70.0912ZM58.9037 18.9688C58.9037 17.4688 59.4454 16.2396 60.5287 15.2812C61.612 14.3229 63.0183 13.8438 64.7474 13.8438C66.4766 13.8438 67.8829 14.3229 68.9662 15.2812C70.0495 16.2396 70.5912 17.4688 70.5912 18.9688C70.5912 20.4688 70.0495 21.6979 68.9662 22.6562C67.8829 23.6146 66.4766 24.0938 64.7474 24.0938C63.0183 24.0938 61.612 23.6146 60.5287 22.6562C59.4454 21.6979 58.9037 20.4688 58.9037 18.9688ZM94.3099 52C94.3099 51.4167 94.112 50.9167 93.7162 50.5C93.3412 50.0625 92.6745 49.6667 91.7162 49.3125C90.7579 48.9375 89.4141 48.5625 87.6849 48.1875C86.0391 47.8333 84.487 47.3646 83.0287 46.7812C81.5912 46.1979 80.3308 45.4896 79.2474 44.6562C78.1641 43.8229 77.3099 42.8333 76.6849 41.6875C76.0808 40.5417 75.7787 39.2292 75.7787 37.75C75.7787 36.3125 76.0808 34.9583 76.6849 33.6875C77.3099 32.3958 78.2162 31.2604 79.4037 30.2812C80.612 29.2812 82.0808 28.5 83.8099 27.9375C85.5391 27.3542 87.5079 27.0625 89.7162 27.0625C92.7579 27.0625 95.3829 27.5312 97.5912 28.4688C99.7995 29.3854 101.497 30.6771 102.685 32.3438C103.893 33.9896 104.497 35.8958 104.497 38.0625H93.9662C93.9662 37.2083 93.8204 36.4792 93.5287 35.875C93.2579 35.2708 92.8099 34.8125 92.1849 34.5C91.5599 34.1667 90.7266 34 89.6849 34C88.9558 34 88.2891 34.1354 87.6849 34.4062C87.1016 34.6771 86.6329 35.0521 86.2787 35.5312C85.9245 36.0104 85.7474 36.5729 85.7474 37.2188C85.7474 37.6771 85.8516 38.0938 86.0599 38.4688C86.2891 38.8229 86.6329 39.1562 87.0912 39.4688C87.5495 39.7604 88.1329 40.0312 88.8412 40.2812C89.5495 40.5104 90.4037 40.7188 91.4037 40.9062C93.6745 41.3229 95.7995 41.9167 97.7787 42.6875C99.7579 43.4583 101.362 44.5521 102.591 45.9688C103.841 47.3854 104.466 49.2917 104.466 51.6875C104.466 53.1875 104.122 54.5729 103.435 55.8438C102.747 57.0938 101.758 58.1979 100.466 59.1562C99.1745 60.0938 97.6224 60.8229 95.8099 61.3438C93.9974 61.8646 91.9558 62.125 89.6849 62.125C86.4558 62.125 83.7266 61.5521 81.4974 60.4062C79.2683 59.2396 77.5808 57.7812 76.4349 56.0312C75.3099 54.2604 74.7474 52.4688 74.7474 50.6562H84.5599C84.6016 51.6979 84.8516 52.5521 85.3099 53.2188C85.7891 53.8854 86.4245 54.375 87.2162 54.6875C88.0079 55 88.9245 55.1562 89.9662 55.1562C90.9245 55.1562 91.7162 55.0208 92.3412 54.75C92.987 54.4792 93.4766 54.1146 93.8099 53.6562C94.1433 53.1771 94.3099 52.625 94.3099 52Z" fill="#E100FF"/>
<path d="M133.872 54.9375V13.5H137.622V61.5H134.122L133.872 54.9375ZM110.404 44.9375V44.2812C110.404 41.6562 110.706 39.2917 111.31 37.1875C111.914 35.0625 112.779 33.25 113.904 31.75C115.05 30.2292 116.425 29.0729 118.029 28.2812C119.633 27.4688 121.445 27.0625 123.466 27.0625C125.445 27.0625 127.195 27.3854 128.716 28.0312C130.237 28.6771 131.539 29.6042 132.622 30.8125C133.727 32.0208 134.612 33.4583 135.279 35.125C135.966 36.7917 136.466 38.6458 136.779 40.6875V49.0312C136.529 50.9479 136.07 52.7083 135.404 54.3125C134.737 55.8958 133.852 57.2812 132.747 58.4688C131.643 59.6354 130.31 60.5417 128.747 61.1875C127.206 61.8125 125.425 62.125 123.404 62.125C121.404 62.125 119.602 61.7083 117.997 60.875C116.393 60.0417 115.029 58.8646 113.904 57.3438C112.779 55.8021 111.914 53.9792 111.31 51.875C110.706 49.7708 110.404 47.4583 110.404 44.9375ZM114.154 44.2812V44.9375C114.154 46.9167 114.352 48.75 114.747 50.4375C115.143 52.125 115.747 53.5938 116.56 54.8438C117.372 56.0938 118.404 57.0729 119.654 57.7812C120.904 58.4896 122.383 58.8438 124.091 58.8438C126.237 58.8438 128.039 58.4375 129.497 57.625C130.956 56.7917 132.122 55.6979 132.997 54.3438C133.872 52.9688 134.508 51.4688 134.904 49.8438V40.125C134.654 39.0208 134.289 37.8958 133.81 36.75C133.331 35.6042 132.675 34.5521 131.841 33.5938C131.029 32.6146 129.987 31.8333 128.716 31.25C127.466 30.6458 125.945 30.3438 124.154 30.3438C122.425 30.3438 120.935 30.6979 119.685 31.4062C118.435 32.1146 117.393 33.1042 116.56 34.375C115.747 35.625 115.143 37.0938 114.747 38.7812C114.352 40.4688 114.154 42.3021 114.154 44.2812ZM168.029 55.4375V38C168.029 36.3958 167.695 35.0104 167.029 33.8438C166.362 32.6771 165.383 31.7812 164.091 31.1562C162.8 30.5312 161.206 30.2188 159.31 30.2188C157.56 30.2188 155.997 30.5312 154.622 31.1562C153.268 31.7604 152.195 32.5833 151.404 33.625C150.633 34.6458 150.247 35.7812 150.247 37.0312L146.497 37C146.497 35.7292 146.81 34.5 147.435 33.3125C148.06 32.125 148.945 31.0625 150.091 30.125C151.237 29.1875 152.602 28.4479 154.185 27.9062C155.789 27.3438 157.55 27.0625 159.466 27.0625C161.883 27.0625 164.008 27.4688 165.841 28.2812C167.695 29.0938 169.143 30.3125 170.185 31.9375C171.227 33.5625 171.747 35.6042 171.747 38.0625V54.4062C171.747 55.5729 171.831 56.7812 171.997 58.0312C172.185 59.2812 172.445 60.3125 172.779 61.125V61.5H168.81C168.56 60.75 168.362 59.8125 168.216 58.6875C168.091 57.5417 168.029 56.4583 168.029 55.4375ZM168.904 41.8125L168.966 44.6875H161.622C159.706 44.6875 157.987 44.8646 156.466 45.2188C154.966 45.5521 153.695 46.0521 152.654 46.7188C151.612 47.3646 150.81 48.1458 150.247 49.0625C149.706 49.9792 149.435 51.0208 149.435 52.1875C149.435 53.3958 149.737 54.5 150.341 55.5C150.966 56.5 151.841 57.3021 152.966 57.9062C154.112 58.4896 155.466 58.7812 157.029 58.7812C159.112 58.7812 160.945 58.3958 162.529 57.625C164.133 56.8542 165.456 55.8438 166.497 54.5938C167.539 53.3438 168.237 51.9792 168.591 50.5L170.216 52.6562C169.945 53.6979 169.445 54.7708 168.716 55.875C168.008 56.9583 167.081 57.9792 165.935 58.9375C164.789 59.875 163.435 60.6458 161.872 61.25C160.331 61.8333 158.581 62.125 156.622 62.125C154.414 62.125 152.487 61.7083 150.841 60.875C149.216 60.0417 147.945 58.9062 147.029 57.4688C146.133 56.0104 145.685 54.3646 145.685 52.5312C145.685 50.8646 146.039 49.375 146.747 48.0625C147.456 46.7292 148.477 45.6042 149.81 44.6875C151.164 43.75 152.789 43.0417 154.685 42.5625C156.602 42.0625 158.747 41.8125 161.122 41.8125H168.904ZM185.497 34.9062V61.5H181.779V27.6875H185.341L185.497 34.9062ZM184.654 42.5L182.997 41.5625C183.122 39.5625 183.529 37.6875 184.216 35.9375C184.904 34.1875 185.831 32.6458 186.997 31.3125C188.185 29.9792 189.57 28.9375 191.154 28.1875C192.758 27.4375 194.529 27.0625 196.466 27.0625C198.154 27.0625 199.664 27.2917 200.997 27.75C202.331 28.2083 203.466 28.9375 204.404 29.9375C205.341 30.9375 206.05 32.2188 206.529 33.7812C207.029 35.3438 207.279 37.25 207.279 39.5V61.5H203.529V39.4688C203.529 37.1354 203.206 35.3125 202.56 34C201.914 32.6667 200.997 31.7188 199.81 31.1562C198.622 30.5938 197.216 30.3125 195.591 30.3125C193.8 30.3125 192.227 30.7083 190.872 31.5C189.539 32.2708 188.414 33.2812 187.497 34.5312C186.602 35.7604 185.914 37.0833 185.435 38.5C184.956 39.8958 184.695 41.2292 184.654 42.5ZM229.747 27.6875V30.75H212.81V27.6875H229.747ZM219.029 19H222.747V53.2812C222.747 54.8438 222.956 56.0208 223.372 56.8125C223.789 57.6042 224.331 58.1354 224.997 58.4062C225.664 58.6771 226.383 58.8125 227.154 58.8125C227.716 58.8125 228.258 58.7812 228.779 58.7188C229.3 58.6354 229.768 58.5521 230.185 58.4688L230.341 61.625C229.883 61.7708 229.289 61.8854 228.56 61.9688C227.831 62.0729 227.102 62.125 226.372 62.125C224.935 62.125 223.664 61.8646 222.56 61.3438C221.456 60.8021 220.591 59.8854 219.966 58.5938C219.341 57.2812 219.029 55.5 219.029 53.25V19ZM241.747 27.6875V61.5H238.029V27.6875H241.747ZM237.372 17.9375C237.372 17.2083 237.591 16.6042 238.029 16.125C238.487 15.625 239.122 15.375 239.935 15.375C240.706 15.375 241.32 15.625 241.779 16.125C242.258 16.6042 242.497 17.2083 242.497 17.9375C242.497 18.6042 242.258 19.1875 241.779 19.6875C241.32 20.1667 240.706 20.4062 239.935 20.4062C239.122 20.4062 238.487 20.1667 238.029 19.6875C237.591 19.1875 237.372 18.6042 237.372 17.9375ZM264.435 58.9062C266.018 58.9062 267.497 58.6146 268.872 58.0312C270.268 57.4271 271.414 56.5417 272.31 55.375C273.227 54.1875 273.747 52.7396 273.872 51.0312H277.435C277.331 53.1771 276.675 55.0938 275.466 56.7812C274.279 58.4479 272.716 59.7604 270.779 60.7188C268.862 61.6562 266.747 62.125 264.435 62.125C262.081 62.125 259.997 61.6979 258.185 60.8438C256.393 59.9896 254.893 58.8021 253.685 57.2812C252.477 55.7396 251.56 53.9479 250.935 51.9062C250.331 49.8438 250.029 47.625 250.029 45.25V43.9375C250.029 41.5625 250.331 39.3542 250.935 37.3125C251.56 35.25 252.477 33.4583 253.685 31.9375C254.893 30.3958 256.393 29.1979 258.185 28.3438C259.977 27.4896 262.05 27.0625 264.404 27.0625C266.82 27.0625 268.987 27.5521 270.904 28.5312C272.841 29.5104 274.383 30.8958 275.529 32.6875C276.695 34.4792 277.331 36.6042 277.435 39.0625H273.872C273.768 37.25 273.289 35.6875 272.435 34.375C271.581 33.0625 270.456 32.0521 269.06 31.3438C267.664 30.6354 266.112 30.2812 264.404 30.2812C262.487 30.2812 260.852 30.6562 259.497 31.4062C258.143 32.1354 257.039 33.1458 256.185 34.4375C255.352 35.7083 254.737 37.1667 254.341 38.8125C253.945 40.4375 253.747 42.1458 253.747 43.9375V45.25C253.747 47.0625 253.935 48.7917 254.31 50.4375C254.706 52.0625 255.32 53.5104 256.154 54.7812C257.008 56.0521 258.112 57.0625 259.466 57.8125C260.841 58.5417 262.497 58.9062 264.435 58.9062Z" fill="black"/>
</svg>
